<svg xmlns="http://www.w3.org/2000/svg" version="1.2" width="14.247" height="26.301" viewBox="0 0 2.288 4.224"><text transform="translate(-25.957 -1.326)" font-size="2.2" fill="currentColor" font-family="Century Schoolbook L"></text><path d="M1.26.464A.168.168 0 001.092.3c-.016 0-.032 0-.048.004C.92.34.736.464.588.56.44.656.252.772.172.872a.172.172 0 00-.044.112c0 .096.084.164.168.164.016 0 .032 0 .048-.004.124-.036.312-.16.46-.256.148-.096.336-.212.416-.312a.168.168 0 00.04-.112zM1.056.176c.188 0 .332.084.332.288a.735.735 0 01-.04.224.7.7 0 01-.26.384c-.216.144-.452.204-.752.204C.148 1.276 0 1.188 0 .984 0 .908.02.836.044.76.092.608.168.464.3.376c.216-.144.456-.2.756-.2zM1.84.224a.224.224 0 11.447 0 .224.224 0 01-.447 0z" fill="currentColor"/><rect transform="translate(.065 1.724)" x="-.065" y="-.739" width=".13" height="3.239" ry=".04" fill="currentColor"/></svg>