<svg xmlns="http://www.w3.org/2000/svg" version="1.2" width="8.741" height="26.912" viewBox="0 0 1.316 4.052"><path d="M.13 4.012H.066v-1H.13c.392-.232.908-.592.908-1.036 0-.228-.064-.448-.164-.652-.012-.064.04-.108.092-.108.028 0 .06.012.08.044.1.224.16.468.16.716 0 .816-1.076 1.22-1.076 2.036z" fill="currentColor"/><rect transform="translate(.065 1.052)" x="-.065" y="-.312" width=".13" height="3.312" ry=".04" fill="currentColor"/><a transform="translate(-49.466 -7.293)"><path d="M50.346 7.293c.224 0 .436.116.436.364 0 .288-.224.484-.412.596a.944.944 0 01-.468.144c-.224 0-.436-.116-.436-.364 0-.288.224-.484.412-.596a.944.944 0 01.468-.144z" fill="currentColor"/></a></svg>