<svg xmlns="http://www.w3.org/2000/svg" version="1.0" viewBox="0 0 8 15"><path d="M3.219 8.377c0 .575-.216 1.126-.807 1.865-.627.783-1.154 1.231-1.849 1.758V8.568c.158-.4.391-.722.7-.97.308-.247.62-.371.936-.371.522 0 .853.296.996.886a.966.966 0 01.024.264zm-.075-2.4c-.431 0-.869.119-1.315.358a5.4 5.4 0 00-1.266.954V.017H0v12.455c0 .352.096.528.288.528.111 0 .249-.093.455-.216.583-.348.947-.58 1.342-.826a9.07 9.07 0 001.629-1.247c.463-.465.798-.934 1.006-1.406.207-.473.311-.941.311-1.406 0-.688-.183-1.177-.549-1.466a2.219 2.219 0 00-1.338-.456z"/></svg>