<svg xmlns="http://www.w3.org/2000/svg" version="1.2" width="14.247" height="25.23" viewBox="0 0 2.288 4.052"><text transform="translate(-10.536 -1)" font-size="2.2" fill="currentColor" font-family="Century Schoolbook L"></text><path d="M1.26 3.24a.168.168 0 00-.168-.164c-.016 0-.032 0-.048.004-.124.036-.308.16-.456.256-.148.096-.336.212-.416.312a.172.172 0 00-.044.112c0 .096.084.164.168.164.016 0 .032 0 .048-.004.124-.036.312-.16.46-.256.148-.096.336-.212.416-.312a.168.168 0 00.04-.112zm-.204-.288c.188 0 .332.084.332.288a.735.735 0 01-.04.224.7.7 0 01-.26.384c-.216.144-.452.204-.752.204C.148 4.052 0 3.964 0 3.76c0-.076.02-.148.044-.224.048-.152.124-.296.256-.384.216-.144.456-.2.756-.2zM1.84 3.5a.224.224 0 11.447 0 .224.224 0 01-.447 0z" fill="currentColor"/><rect transform="translate(1.325 3)" x="-.065" y="-3" width=".13" height="3.239" ry=".04" fill="currentColor"/></svg>