<svg xmlns="http://www.w3.org/2000/svg" version="1.2" width="13.787" height="26.301" viewBox="0 0 2.214 4.224"><text transform="translate(-42.713 -1.326)" font-size="2.2" fill="currentColor" font-family="Century Schoolbook L"></text><path d="M.88.172c.224 0 .436.116.436.364 0 .288-.224.484-.412.596a.944.944 0 01-.468.144C.212 1.276 0 1.16 0 .912 0 .624.224.428.412.316A.944.944 0 01.88.172zM1.766.224a.224.224 0 11.447 0 .224.224 0 01-.447 0z" fill="currentColor"/><rect transform="translate(.065 1.724)" x="-.065" y="-.812" width=".13" height="3.312" ry=".04" fill="currentColor"/></svg>