<svg xmlns="http://www.w3.org/2000/svg" version="1.2" width="13.786" height="25.23" viewBox="0 0 2.214 4.052"><text transform="translate(-8.87 -2.05)" font-size="2.2" fill="currentColor" font-family="Century Schoolbook L"></text><rect transform="translate(1.251 3)" x="-.065" y="-3" width=".13" height="3.312" ry=".04" fill="currentColor"/><path d="M1.766 3.5a.224.224 0 11.447 0 .224.224 0 01-.447 0zM.88 2.948c.224 0 .436.116.436.364 0 .288-.224.484-.412.596a.944.944 0 01-.468.144C.212 4.052 0 3.936 0 3.688c0-.288.224-.484.412-.596a.944.944 0 01.468-.144z" fill="currentColor"/></svg>