<svg xmlns="http://www.w3.org/2000/svg" version="1.0" width="10.53" height="26.7"><path d="M3.576.56c-.247.105-.394.465-.281.717.034.036.392.464.752.936.823.927.963 1.147 1.145 1.575.718 1.469.324 3.339-.934 4.522-.106.14-.57.532-1.006.856-1.251 1.077-1.827 1.689-2.04 2.229-.077.142-.077.282-.077.5-.034.499 0 .542 1.478 2.257 2.003 2.405 3.438 4.092 3.55 4.198l.106.104-.14-.07c-1.977-.822-4.198-1.217-4.95-.857a.854.854 0 00-.507.499c-.29.612-.212 1.512.218 2.833.393 1.188 1.181 2.763 1.968 3.946.324.506.936 1.292 1.006 1.328.106.106.254.07.358 0 .106-.14.106-.254-.104-.498-.753-1.077-1.111-3.305-.683-4.488.175-.533.395-.822.787-1.004 1.04-.465 3.34.111 4.304 1.074.07.072.218.22.288.254.254.106.612-.034.718-.288.148-.254.07-.428-.254-.822-.605-.719-2.433-2.87-2.685-3.194-.648-.752-.936-1.468-1.007-2.368-.034-1.147.429-2.362 1.295-3.158.104-.14.568-.534.999-.856 1.328-1.113 1.87-1.723 2.08-2.3.148-.465.078-.894-.246-1.288-.112-.104-1.365-1.652-2.833-3.409C4.87 1.425 4.15.561 4.047.525a.736.736 0 00-.471.036z" stroke="none" fill-rule="evenodd" stroke-width="0" stroke-linejoin="round" stroke-miterlimit="10"/></svg>